<?xml version="1.0" encoding="UTF-8"?>
<svg version="1.1" xmlns="http://www.w3.org/2000/svg" width="614" height="614">
<path d="M0 0 C2.5232246 -0.00463739 5.04644851 -0.00966327 7.56967163 -0.01504517 C14.38176638 -0.0280779 21.19384991 -0.03463369 28.00595498 -0.03905582 C32.27165806 -0.04183601 36.53735895 -0.04607619 40.80306053 -0.05056 C52.65124143 -0.06273328 64.4994206 -0.07303904 76.34760761 -0.07643509 C77.48051216 -0.07676444 77.48051216 -0.07676444 78.63630367 -0.07710044 C79.77163598 -0.07742786 79.77163598 -0.07742786 80.92990428 -0.07776189 C82.46319791 -0.07820533 83.99649153 -0.07865189 85.52978516 -0.07910156 C86.29032246 -0.07932299 87.05085976 -0.07954442 87.83444365 -0.07977256 C100.15551726 -0.08372004 112.47653172 -0.10118128 124.79758248 -0.12446108 C137.49613244 -0.14825764 150.19465279 -0.16064056 162.89322537 -0.16180301 C170.00356515 -0.16271467 177.11382761 -0.16833829 184.22414589 -0.18662262 C190.91460977 -0.20376924 197.60490283 -0.20521477 204.29539108 -0.19648361 C206.73690242 -0.19571825 209.17842193 -0.199989 211.6199131 -0.20994186 C245.26471172 -0.33895005 274.59520972 5.55219935 299.5222168 29.59863281 C308.02942594 38.4227294 313.60325942 48.13667104 318.76049805 59.15307617 C319.37250229 60.44776107 320.00899235 61.73128605 320.67456055 62.99926758 C324.71905969 71.14343636 326.30850121 80.17060815 328.3347168 88.97363281 C328.76716254 90.82185045 329.2002807 92.66991087 329.6340332 94.51782227 C331.94540778 104.3972586 334.19932008 114.28981967 336.4440918 124.18457031 C336.77798416 125.65614845 336.77798416 125.65614845 337.11862183 127.15745544 C338.1887582 131.87902996 339.25398652 136.60162064 340.30981445 141.32641602 C340.50778625 142.20733917 340.70575806 143.08826233 340.909729 143.99588013 C341.27137129 145.60533264 341.63084295 147.21527588 341.98724365 148.82589722 C343.07033291 153.63357476 344.30057462 158.38682811 345.59155273 163.14306641 C347.69700585 170.93098048 349.51305239 178.77391066 351.28277206 186.64399529 C351.84487514 189.14338384 352.41069313 191.64190863 352.97732544 194.14027405 C354.18295543 199.45901333 355.38413973 204.77875102 356.5847168 210.09863281 C358.16214237 217.08766435 359.74168976 224.07620711 361.3269043 231.06347656 C361.51785738 231.90537914 361.70881046 232.74728172 361.90555 233.6146965 C364.61966645 245.56361603 367.45040719 257.47255679 370.4921875 269.34301758 C371.75049678 274.26402332 372.90094788 279.20730001 374.0222168 284.16113281 C374.18098297 284.8572316 374.33974915 285.55333038 374.50332642 286.27052307 C378.91916868 306.28667448 377.16593385 325.86746922 366.6472168 343.72363281 C356.65894211 358.49078031 342.83229704 368.19427748 325.7097168 373.16113281 C324.55149414 373.49757813 324.55149414 373.49757813 323.36987305 373.84082031 C305.69247451 378.13516339 287.1219357 374.60589234 271.63500977 365.42236328 C262.46898462 359.41783806 255.14692035 350.91527311 248.7097168 342.16113281 C247.66314341 340.7559602 246.61623789 339.35103493 245.5690918 337.94628906 C241.9227922 333.03717959 238.31244749 328.1022702 234.7097168 323.16113281 C234.13995117 322.3807666 233.57018555 321.60040039 232.9831543 320.79638672 C226.68846245 312.16497351 220.513129 303.47132078 214.51928711 294.62817383 C212.08742644 291.06812578 209.56707272 287.70055171 206.7722168 284.41113281 C200.97324925 277.38753858 196.58744747 269.29383854 192.03320312 261.43286133 C191.19973677 260.00223885 190.35244058 258.57949882 189.48583984 257.16870117 C186.12271785 251.61410124 185.52789001 247.50945911 186.7097168 241.16113281 C190.70277155 230.41511783 196.19416667 221.862918 206.81518555 216.88769531 C214.79402257 213.82777018 226.67947883 213.51200442 234.7722168 216.53613281 C251.89428494 226.04839289 263.00544819 256.05288729 272.03393555 272.35644531 C275.58157588 278.72289794 279.39257695 284.68505704 283.77612305 290.51269531 C285.72430182 293.18110987 287.47391863 295.91329292 289.2097168 298.72363281 C295.63366148 309.17299096 295.63366148 309.17299096 304.7097168 317.16113281 C309.77138191 317.16113281 311.72586762 316.9775183 315.6472168 313.72363281 C319.14761933 309.37464784 318.76978333 307.07188258 318.21591187 301.67391968 C317.1511405 294.28484161 315.3579813 287.04050624 313.66674805 279.77441406 C313.2560009 277.98688013 312.84583078 276.19921351 312.436203 274.41142273 C311.57725921 270.66933076 310.71363636 266.92836276 309.84619141 263.18823242 C308.75163306 258.46865479 307.66521307 253.74725569 306.5818634 249.02509403 C302.82536992 232.65506486 299.05800269 216.29336621 294.91062927 200.0171814 C292.72809544 191.38612477 290.73905272 182.71261683 288.7644043 174.03222656 C288.50861005 172.90788428 288.50861005 172.90788428 288.24764824 171.76082802 C286.84461561 165.58871101 285.44785907 159.41517637 284.05163574 153.24151611 C283.00050412 148.59459134 281.94701928 143.94821184 280.89050674 139.3025074 C280.40755722 137.17470555 279.92791016 135.04617889 279.44845581 132.91758728 C277.65963288 125.02262806 275.7024609 117.19274913 273.57627869 109.38308716 C272.82982308 106.60769868 272.13098576 103.82927639 271.47143555 101.03222656 C267.84071693 85.84062283 263.46280993 72.84584755 249.7800293 63.89941406 C240.86200963 58.922345 230.60356855 57.71016467 220.56619263 57.78018188 C219.51226094 57.77550191 218.45832926 57.77082194 217.37246025 57.76600015 C213.87683701 57.75413175 210.38161176 57.76347552 206.88598633 57.77294922 C204.36508965 57.76887985 201.84419476 57.76353593 199.32330322 57.75701904 C193.20808151 57.74479531 187.09300468 57.74653527 180.97778119 57.75525697 C176.00296874 57.7620559 171.0281872 57.76294072 166.05337143 57.75968552 C165.34299623 57.75922582 164.63262103 57.75876612 163.90071931 57.75829249 C162.45719195 57.75733322 161.01366459 57.75636058 159.57013725 57.75537471 C146.05925745 57.74683643 132.5484389 57.75662971 119.03756915 57.77277581 C107.47040931 57.78617178 95.90333984 57.78385383 84.33618164 57.77001953 C70.8739107 57.753926 57.41169335 57.74766634 43.94941413 57.75685632 C42.51084066 57.75781187 41.07226718 57.75875499 39.6336937 57.75968552 C38.92606307 57.76014834 38.21843244 57.76061117 37.48935846 57.76108802 C32.52745996 57.76366705 27.56559574 57.75933038 22.60370255 57.75224686 C15.910826 57.74290147 9.21814512 57.74965731 2.52527618 57.76692963 C0.07683722 57.77087778 -2.37161616 57.76978928 -4.82004929 57.76314163 C-31.12271959 57.54230352 -31.12271959 57.54230352 -54.38012695 68.83691406 C-65.04783897 79.73805523 -67.71563449 97.43296771 -71.1652832 111.66113281 C-71.71710613 113.89982386 -72.26928104 116.13842817 -72.82177734 118.37695312 C-78.39945366 141.11832586 -83.58336877 163.9544602 -88.7331543 186.79589844 C-91.71194071 199.9973419 -94.73688808 213.17526087 -98.06803894 226.29353333 C-101.24713061 238.85052249 -104.12709585 251.47787812 -107.0402832 264.09863281 C-107.62213228 266.6110448 -108.20416281 269.12341477 -108.78637695 271.63574219 C-111.63875465 283.93684593 -111.63875465 283.93684593 -114.44604492 296.24829102 C-114.60225311 296.93921341 -114.7584613 297.6301358 -114.91940308 298.34199524 C-115.98764166 303.58162069 -116.30007038 308.40335513 -113.6027832 313.09863281 C-109.1056204 317.17912414 -109.1056204 317.17912414 -103.2902832 318.09863281 C-96.54400161 315.99041981 -93.26750691 310.67312311 -89.4777832 305.09863281 C-88.41457346 303.56306626 -87.35077115 302.02790983 -86.28637695 300.49316406 C-85.77316895 299.7488916 -85.25996094 299.00461914 -84.73120117 298.23779297 C-82.87242504 295.55891296 -80.96413854 292.91857645 -79.0402832 290.28613281 C-78.4112207 289.42503906 -77.7821582 288.56394531 -77.1340332 287.67675781 C-75.90486654 285.99967448 -74.67569987 284.32259115 -73.4465332 282.64550781 C-69.21604735 276.85459685 -65.05141847 271.01962888 -60.9152832 265.16113281 C-60.12879395 264.04714111 -60.12879395 264.04714111 -59.32641602 262.91064453 C-57.28376549 260.01189292 -55.25752141 257.11199012 -53.2902832 254.16113281 C-52.6302832 254.16113281 -51.9702832 254.16113281 -51.2902832 254.16113281 C-51.0840332 253.51015625 -50.8777832 252.85917969 -50.6652832 252.18847656 C-48.74297393 247.9561195 -46.04886645 244.4490203 -43.2902832 240.72363281 C-42.11028123 239.11058157 -40.93059713 237.49729774 -39.7512207 235.88378906 C-39.16566406 235.08602051 -38.58010742 234.28825195 -37.97680664 233.46630859 C-35.59834292 230.21537425 -33.25294587 226.94147538 -30.9152832 223.66113281 C-30.30330078 222.80370483 -30.30330078 222.80370483 -29.67895508 221.92895508 C-27.36613364 218.68447542 -25.07092881 215.42829023 -22.7902832 212.16113281 C-21.62416775 210.49408043 -20.45744982 208.8274494 -19.2902832 207.16113281 C-18.91935547 206.6302002 -18.54842773 206.09926758 -18.16625977 205.55224609 C-4.40753246 185.90088095 10.38140678 167.73493116 34.6394043 161.39550781 C49.17390494 159.00521858 62.18233825 160.10680607 75.7097168 166.16113281 C76.66362305 166.58265625 77.6175293 167.00417969 78.6003418 167.43847656 C90.47713267 173.29203778 100.3632709 183.78319431 108.28393555 194.23925781 C110.8054675 197.49540931 112.20929323 198.97006199 116.1472168 200.47363281 C121.11901825 200.03750988 123.28613915 197.63506417 126.7097168 194.16113281 C128.63164618 191.78577769 130.30142464 189.28788181 131.9597168 186.72363281 C132.91207959 185.29517105 133.86656038 183.86811942 134.82299805 182.44238281 C135.3020459 181.72566406 135.78109375 181.00894531 136.2746582 180.27050781 C138.48204413 177.02589835 140.80787638 173.87379848 143.1472168 170.72363281 C147.01267064 165.50255476 150.79402756 160.23106418 154.5222168 154.91113281 C159.4042256 147.95106314 164.41244789 141.0929702 169.48706055 134.2722168 C172.92363062 129.63864451 176.24904862 124.94872794 179.50317383 120.18554688 C187.00900071 109.25613647 195.27387498 99.16371986 208.98706055 96.53222656 C216.46744242 95.71821021 221.51427138 96.08555484 227.72924805 100.64160156 C233.37964642 105.22272232 238.39063779 110.80067194 239.7097168 118.16113281 C240.85008409 133.17285306 236.38563657 140.62225454 227.7097168 152.12597656 C224.72776691 156.09579391 221.9282955 160.1741765 219.1472168 164.28613281 C215.80997774 169.19966721 212.37651481 173.98834756 208.7097168 178.66113281 C202.29209861 186.86827914 196.48669094 195.49567159 190.7097168 204.16113281 C190.0497168 204.16113281 189.3897168 204.16113281 188.7097168 204.16113281 C188.40227539 205.13179688 188.40227539 205.13179688 188.08862305 206.12207031 C186.14248451 210.41129349 183.42912372 214.00054669 180.6472168 217.78613281 C180.06085449 218.58720459 179.47449219 219.38827637 178.87036133 220.21362305 C177.15993139 222.5369297 175.43797338 224.85106627 173.7097168 227.16113281 C173.27643066 227.74362793 172.84314453 228.32612305 172.39672852 228.92626953 C161.48667644 243.44697463 145.99962982 254.50192068 127.7097168 257.16113281 C107.84939532 258.75503091 90.069563 255.13984451 74.23706055 242.51269531 C68.38804374 237.50698317 63.87560718 231.86774044 59.51049805 225.55957031 C56.88255968 222.05945284 54.60377933 220.18027635 50.7097168 218.16113281 C47.07343715 218.30639032 45.2310915 218.73238813 42.40112305 221.05957031 C37.96784987 226.2168092 34.13227183 231.41410303 30.6003418 237.22363281 C28.04745272 241.1901051 25.18280776 244.87146028 22.26074219 248.57055664 C19.56063441 251.99855248 17.11047618 255.51891611 14.7097168 259.16113281 C12.30868102 262.61083425 9.86779825 266.03251 7.43481445 269.4597168 C4.92238628 273.00579692 2.42623162 276.55885221 -0.00512695 280.16113281 C-0.41480713 280.76562256 -0.8244873 281.3701123 -1.24658203 281.99291992 C-2.3521866 283.63019395 -3.45037032 285.27247196 -4.5480957 286.91503906 C-5.41047852 288.02685547 -5.41047852 288.02685547 -6.2902832 289.16113281 C-6.9502832 289.16113281 -7.6102832 289.16113281 -8.2902832 289.16113281 C-8.5480957 289.88429688 -8.8059082 290.60746094 -9.0715332 291.35253906 C-10.3510936 294.3012696 -11.86059233 296.53230212 -13.7902832 299.09863281 C-16.89457201 303.2785549 -19.96181276 307.47965347 -22.9777832 311.72363281 C-28.0362894 318.82182722 -33.13485497 325.89078258 -38.24731445 332.95019531 C-40.047835 335.43707762 -41.84006478 337.92901759 -43.61450195 340.43457031 C-49.32519617 348.44524943 -55.31822883 356.27699744 -63.2902832 362.16113281 C-63.9502832 362.16113281 -64.6102832 362.16113281 -65.2902832 362.16113281 C-65.2902832 362.82113281 -65.2902832 363.48113281 -65.2902832 364.16113281 C-85.51209303 375.08973607 -104.75166972 378.45901829 -127.08374023 371.89306641 C-138.1120599 368.23485636 -147.24509636 362.56806367 -155.2902832 354.16113281 C-156.36536133 353.11505859 -156.36536133 353.11505859 -157.4621582 352.04785156 C-169.10860441 340.07302811 -173.22671236 323.21541757 -173.39550781 306.91333008 C-172.91551736 294.35896263 -170.42860785 282.17225574 -167.6027832 269.97363281 C-167.28494574 268.57081456 -166.96788978 267.16781901 -166.65161133 265.76464844 C-165.04447992 258.6661468 -163.38918996 251.57891394 -161.72998047 244.49243164 C-158.59748102 231.11178463 -155.49579849 217.72558186 -152.46606445 204.32128906 C-152.30721834 203.61899233 -152.14837223 202.91669559 -151.9847126 202.19311714 C-150.52599088 195.7436598 -149.06875166 189.29387005 -147.61621094 182.84301758 C-146.80662555 179.24815956 -145.99415351 175.65396356 -145.17995262 172.06014824 C-144.73484649 170.09184507 -144.29280863 168.1228488 -143.85090637 166.15382385 C-142.15945043 158.69447644 -140.27847072 151.30980362 -138.28175354 143.92674255 C-136.79209529 138.26901239 -135.48210242 132.57326633 -134.17931557 126.87005615 C-133.35982805 123.29417444 -132.5237923 119.72213972 -131.69067383 116.14941406 C-130.64620414 111.6676341 -129.60631766 107.18497556 -128.58544922 102.69775391 C-117.8084748 55.39948113 -117.8084748 55.39948113 -105.2902832 39.16113281 C-104.25967773 37.78828125 -104.25967773 37.78828125 -103.20825195 36.38769531 C-87.57978155 16.40733911 -66.20375814 4.93843528 -41.2902832 1.16113281 C-27.56538694 -0.17296978 -13.77343397 0.00594263 0 0 Z " fill="#5C199C" transform="translate(205.290283203125,119.8388671875)"/>
<path d="M0 0 C2.5232246 -0.00463739 5.04644851 -0.00966327 7.56967163 -0.01504517 C14.38176638 -0.0280779 21.19384991 -0.03463369 28.00595498 -0.03905582 C32.27165806 -0.04183601 36.53735895 -0.04607619 40.80306053 -0.05056 C52.65124143 -0.06273328 64.4994206 -0.07303904 76.34760761 -0.07643509 C77.48051216 -0.07676444 77.48051216 -0.07676444 78.63630367 -0.07710044 C79.77163598 -0.07742786 79.77163598 -0.07742786 80.92990428 -0.07776189 C82.46319791 -0.07820533 83.99649153 -0.07865189 85.52978516 -0.07910156 C86.29032246 -0.07932299 87.05085976 -0.07954442 87.83444365 -0.07977256 C100.15551726 -0.08372004 112.47653172 -0.10118128 124.79758248 -0.12446108 C137.49613244 -0.14825764 150.19465279 -0.16064056 162.89322537 -0.16180301 C170.00356515 -0.16271467 177.11382761 -0.16833829 184.22414589 -0.18662262 C190.91460977 -0.20376924 197.60490283 -0.20521477 204.29539108 -0.19648361 C206.73690242 -0.19571825 209.17842193 -0.199989 211.6199131 -0.20994186 C245.26471172 -0.33895005 274.59520972 5.55219935 299.5222168 29.59863281 C308.02942594 38.4227294 313.60325942 48.13667104 318.76049805 59.15307617 C319.37250229 60.44776107 320.00899235 61.73128605 320.67456055 62.99926758 C324.71905969 71.14343636 326.30850121 80.17060815 328.3347168 88.97363281 C328.76716254 90.82185045 329.2002807 92.66991087 329.6340332 94.51782227 C331.94540778 104.3972586 334.19932008 114.28981967 336.4440918 124.18457031 C336.77798416 125.65614845 336.77798416 125.65614845 337.11862183 127.15745544 C338.1887582 131.87902996 339.25398652 136.60162064 340.30981445 141.32641602 C340.50778625 142.20733917 340.70575806 143.08826233 340.909729 143.99588013 C341.27137129 145.60533264 341.63084295 147.21527588 341.98724365 148.82589722 C343.07033291 153.63357476 344.30057462 158.38682811 345.59155273 163.14306641 C347.69700585 170.93098048 349.51305239 178.77391066 351.28277206 186.64399529 C351.84487514 189.14338384 352.41069313 191.64190863 352.97732544 194.14027405 C354.18295543 199.45901333 355.38413973 204.77875102 356.5847168 210.09863281 C358.16214237 217.08766435 359.74168976 224.07620711 361.3269043 231.06347656 C361.51785738 231.90537914 361.70881046 232.74728172 361.90555 233.6146965 C364.61966645 245.56361603 367.45040719 257.47255679 370.4921875 269.34301758 C371.75049678 274.26402332 372.90094788 279.20730001 374.0222168 284.16113281 C374.18098297 284.8572316 374.33974915 285.55333038 374.50332642 286.27052307 C378.91916868 306.28667448 377.16593385 325.86746922 366.6472168 343.72363281 C356.65894211 358.49078031 342.83229704 368.19427748 325.7097168 373.16113281 C324.55149414 373.49757813 324.55149414 373.49757813 323.36987305 373.84082031 C305.69247451 378.13516339 287.1219357 374.60589234 271.63500977 365.42236328 C262.46898462 359.41783806 255.14692035 350.91527311 248.7097168 342.16113281 C247.66314341 340.7559602 246.61623789 339.35103493 245.5690918 337.94628906 C241.9227922 333.03717959 238.31244749 328.1022702 234.7097168 323.16113281 C234.13995117 322.3807666 233.57018555 321.60040039 232.9831543 320.79638672 C226.68846245 312.16497351 220.513129 303.47132078 214.51928711 294.62817383 C212.08742644 291.06812578 209.56707272 287.70055171 206.7722168 284.41113281 C200.97324925 277.38753858 196.58744747 269.29383854 192.03320312 261.43286133 C191.19973677 260.00223885 190.35244058 258.57949882 189.48583984 257.16870117 C186.12271785 251.61410124 185.52789001 247.50945911 186.7097168 241.16113281 C190.70277155 230.41511783 196.19416667 221.862918 206.81518555 216.88769531 C214.79402257 213.82777018 226.67947883 213.51200442 234.7722168 216.53613281 C251.89428494 226.04839289 263.00544819 256.05288729 272.03393555 272.35644531 C275.58157588 278.72289794 279.39257695 284.68505704 283.77612305 290.51269531 C285.72430182 293.18110987 287.47391863 295.91329292 289.2097168 298.72363281 C295.63366148 309.17299096 295.63366148 309.17299096 304.7097168 317.16113281 C309.77138191 317.16113281 311.72586762 316.9775183 315.6472168 313.72363281 C319.14761933 309.37464784 318.76978333 307.07188258 318.21591187 301.67391968 C317.1511405 294.28484161 315.3579813 287.04050624 313.66674805 279.77441406 C313.2560009 277.98688013 312.84583078 276.19921351 312.436203 274.41142273 C311.57725921 270.66933076 310.71363636 266.92836276 309.84619141 263.18823242 C308.75163306 258.46865479 307.66521307 253.74725569 306.5818634 249.02509403 C302.82536992 232.65506486 299.05800269 216.29336621 294.91062927 200.0171814 C292.72809544 191.38612477 290.73905272 182.71261683 288.7644043 174.03222656 C288.50861005 172.90788428 288.50861005 172.90788428 288.24764824 171.76082802 C286.84461561 165.58871101 285.44785907 159.41517637 284.05163574 153.24151611 C283.00050412 148.59459134 281.94701928 143.94821184 280.89050674 139.3025074 C280.40755722 137.17470555 279.92791016 135.04617889 279.44845581 132.91758728 C277.65963288 125.02262806 275.7024609 117.19274913 273.57627869 109.38308716 C272.82982308 106.60769868 272.13098576 103.82927639 271.47143555 101.03222656 C267.84071693 85.84062283 263.46280993 72.84584755 249.7800293 63.89941406 C240.86200963 58.922345 230.60356855 57.71016467 220.56619263 57.78018188 C219.51226094 57.77550191 218.45832926 57.77082194 217.37246025 57.76600015 C213.87683701 57.75413175 210.38161176 57.76347552 206.88598633 57.77294922 C204.36508965 57.76887985 201.84419476 57.76353593 199.32330322 57.75701904 C193.20808151 57.74479531 187.09300468 57.74653527 180.97778119 57.75525697 C176.00296874 57.7620559 171.0281872 57.76294072 166.05337143 57.75968552 C165.34299623 57.75922582 164.63262103 57.75876612 163.90071931 57.75829249 C162.45719195 57.75733322 161.01366459 57.75636058 159.57013725 57.75537471 C146.05925745 57.74683643 132.5484389 57.75662971 119.03756915 57.77277581 C107.47040931 57.78617178 95.90333984 57.78385383 84.33618164 57.77001953 C70.8739107 57.753926 57.41169335 57.74766634 43.94941413 57.75685632 C42.51084066 57.75781187 41.07226718 57.75875499 39.6336937 57.75968552 C38.92606307 57.76014834 38.21843244 57.76061117 37.48935846 57.76108802 C32.52745996 57.76366705 27.56559574 57.75933038 22.60370255 57.75224686 C15.910826 57.74290147 9.21814512 57.74965731 2.52527618 57.76692963 C0.07683722 57.77087778 -2.37161616 57.76978928 -4.82004929 57.76314163 C-31.12271959 57.54230352 -31.12271959 57.54230352 -54.38012695 68.83691406 C-65.04783897 79.73805523 -67.71563449 97.43296771 -71.1652832 111.66113281 C-71.71710613 113.89982386 -72.26928104 116.13842817 -72.82177734 118.37695312 C-78.39945366 141.11832586 -83.58336877 163.9544602 -88.7331543 186.79589844 C-91.71194071 199.9973419 -94.73688808 213.17526087 -98.06803894 226.29353333 C-101.24713061 238.85052249 -104.12709585 251.47787812 -107.0402832 264.09863281 C-107.62213228 266.6110448 -108.20416281 269.12341477 -108.78637695 271.63574219 C-111.63875465 283.93684593 -111.63875465 283.93684593 -114.44604492 296.24829102 C-114.60225311 296.93921341 -114.7584613 297.6301358 -114.91940308 298.34199524 C-115.98764166 303.58162069 -116.30007038 308.40335513 -113.6027832 313.09863281 C-109.1056204 317.17912414 -109.1056204 317.17912414 -103.2902832 318.09863281 C-96.54400161 315.99041981 -93.26750691 310.67312311 -89.4777832 305.09863281 C-88.41457346 303.56306626 -87.35077115 302.02790983 -86.28637695 300.49316406 C-85.77316895 299.7488916 -85.25996094 299.00461914 -84.73120117 298.23779297 C-82.87242504 295.55891296 -80.96413854 292.91857645 -79.0402832 290.28613281 C-78.4112207 289.42503906 -77.7821582 288.56394531 -77.1340332 287.67675781 C-75.90486654 285.99967448 -74.67569987 284.32259115 -73.4465332 282.64550781 C-69.21604735 276.85459685 -65.05141847 271.01962888 -60.9152832 265.16113281 C-60.12879395 264.04714111 -60.12879395 264.04714111 -59.32641602 262.91064453 C-57.28376549 260.01189292 -55.25752141 257.11199012 -53.2902832 254.16113281 C-52.6302832 254.16113281 -51.9702832 254.16113281 -51.2902832 254.16113281 C-51.0840332 253.51015625 -50.8777832 252.85917969 -50.6652832 252.18847656 C-48.74297393 247.9561195 -46.04886645 244.4490203 -43.2902832 240.72363281 C-42.11028123 239.11058157 -40.93059713 237.49729774 -39.7512207 235.88378906 C-39.16566406 235.08602051 -38.58010742 234.28825195 -37.97680664 233.46630859 C-35.59834292 230.21537425 -33.25294587 226.94147538 -30.9152832 223.66113281 C-30.30330078 222.80370483 -30.30330078 222.80370483 -29.67895508 221.92895508 C-27.36613364 218.68447542 -25.07092881 215.42829023 -22.7902832 212.16113281 C-21.62416775 210.49408043 -20.45744982 208.8274494 -19.2902832 207.16113281 C-18.91935547 206.6302002 -18.54842773 206.09926758 -18.16625977 205.55224609 C-4.40753246 185.90088095 10.38140678 167.73493116 34.6394043 161.39550781 C49.17390494 159.00521858 62.18233825 160.10680607 75.7097168 166.16113281 C76.66362305 166.58265625 77.6175293 167.00417969 78.6003418 167.43847656 C90.47713267 173.29203778 100.3632709 183.78319431 108.28393555 194.23925781 C110.8054675 197.49540931 112.20929323 198.97006199 116.1472168 200.47363281 C121.11901825 200.03750988 123.28613915 197.63506417 126.7097168 194.16113281 C128.63164618 191.78577769 130.30142464 189.28788181 131.9597168 186.72363281 C132.91207959 185.29517105 133.86656038 183.86811942 134.82299805 182.44238281 C135.3020459 181.72566406 135.78109375 181.00894531 136.2746582 180.27050781 C138.48204413 177.02589835 140.80787638 173.87379848 143.1472168 170.72363281 C147.01267064 165.50255476 150.79402756 160.23106418 154.5222168 154.91113281 C159.4042256 147.95106314 164.41244789 141.0929702 169.48706055 134.2722168 C172.92363062 129.63864451 176.24904862 124.94872794 179.50317383 120.18554688 C187.00900071 109.25613647 195.27387498 99.16371986 208.98706055 96.53222656 C216.46744242 95.71821021 221.51427138 96.08555484 227.72924805 100.64160156 C233.37964642 105.22272232 238.39063779 110.80067194 239.7097168 118.16113281 C240.85008409 133.17285306 236.38563657 140.62225454 227.7097168 152.12597656 C224.72776691 156.09579391 221.9282955 160.1741765 219.1472168 164.28613281 C215.80997774 169.19966721 212.37651481 173.98834756 208.7097168 178.66113281 C202.29209861 186.86827914 196.48669094 195.49567159 190.7097168 204.16113281 C190.0497168 204.16113281 189.3897168 204.16113281 188.7097168 204.16113281 C188.40227539 205.13179688 188.40227539 205.13179688 188.08862305 206.12207031 C186.14248451 210.41129349 183.42912372 214.00054669 180.6472168 217.78613281 C180.06085449 218.58720459 179.47449219 219.38827637 178.87036133 220.21362305 C177.15993139 222.5369297 175.43797338 224.85106627 173.7097168 227.16113281 C173.27643066 227.74362793 172.84314453 228.32612305 172.39672852 228.92626953 C161.48667644 243.44697463 145.99962982 254.50192068 127.7097168 257.16113281 C107.84939532 258.75503091 90.069563 255.13984451 74.23706055 242.51269531 C68.38804374 237.50698317 63.87560718 231.86774044 59.51049805 225.55957031 C56.88255968 222.05945284 54.60377933 220.18027635 50.7097168 218.16113281 C47.07343715 218.30639032 45.2310915 218.73238813 42.40112305 221.05957031 C37.96784987 226.2168092 34.13227183 231.41410303 30.6003418 237.22363281 C28.04745272 241.1901051 25.18280776 244.87146028 22.26074219 248.57055664 C19.56063441 251.99855248 17.11047618 255.51891611 14.7097168 259.16113281 C12.30868102 262.61083425 9.86779825 266.03251 7.43481445 269.4597168 C4.92238628 273.00579692 2.42623162 276.55885221 -0.00512695 280.16113281 C-0.41480713 280.76562256 -0.8244873 281.3701123 -1.24658203 281.99291992 C-2.3521866 283.63019395 -3.45037032 285.27247196 -4.5480957 286.91503906 C-5.41047852 288.02685547 -5.41047852 288.02685547 -6.2902832 289.16113281 C-6.9502832 289.16113281 -7.6102832 289.16113281 -8.2902832 289.16113281 C-8.5480957 289.88429688 -8.8059082 290.60746094 -9.0715332 291.35253906 C-10.3510936 294.3012696 -11.86059233 296.53230212 -13.7902832 299.09863281 C-16.89457201 303.2785549 -19.96181276 307.47965347 -22.9777832 311.72363281 C-28.0362894 318.82182722 -33.13485497 325.89078258 -38.24731445 332.95019531 C-40.047835 335.43707762 -41.84006478 337.92901759 -43.61450195 340.43457031 C-49.32519617 348.44524943 -55.31822883 356.27699744 -63.2902832 362.16113281 C-63.9502832 362.16113281 -64.6102832 362.16113281 -65.2902832 362.16113281 C-65.2902832 362.82113281 -65.2902832 363.48113281 -65.2902832 364.16113281 C-85.51209303 375.08973607 -104.75166972 378.45901829 -127.08374023 371.89306641 C-138.1120599 368.23485636 -147.24509636 362.56806367 -155.2902832 354.16113281 C-156.36536133 353.11505859 -156.36536133 353.11505859 -157.4621582 352.04785156 C-169.10860441 340.07302811 -173.22671236 323.21541757 -173.39550781 306.91333008 C-172.91551736 294.35896263 -170.42860785 282.17225574 -167.6027832 269.97363281 C-167.28494574 268.57081456 -166.96788978 267.16781901 -166.65161133 265.76464844 C-165.04447992 258.6661468 -163.38918996 251.57891394 -161.72998047 244.49243164 C-158.59748102 231.11178463 -155.49579849 217.72558186 -152.46606445 204.32128906 C-152.30721834 203.61899233 -152.14837223 202.91669559 -151.9847126 202.19311714 C-150.52599088 195.7436598 -149.06875166 189.29387005 -147.61621094 182.84301758 C-146.80662555 179.24815956 -145.99415351 175.65396356 -145.17995262 172.06014824 C-144.73484649 170.09184507 -144.29280863 168.1228488 -143.85090637 166.15382385 C-142.15945043 158.69447644 -140.27847072 151.30980362 -138.28175354 143.92674255 C-136.79209529 138.26901239 -135.48210242 132.57326633 -134.17931557 126.87005615 C-133.35982805 123.29417444 -132.5237923 119.72213972 -131.69067383 116.14941406 C-130.64620414 111.6676341 -129.60631766 107.18497556 -128.58544922 102.69775391 C-117.8084748 55.39948113 -117.8084748 55.39948113 -105.2902832 39.16113281 C-104.25967773 37.78828125 -104.25967773 37.78828125 -103.20825195 36.38769531 C-87.57978155 16.40733911 -66.20375814 4.93843528 -41.2902832 1.16113281 C-27.56538694 -0.17296978 -13.77343397 0.00594263 0 0 Z M-20.8894043 4.58740234 C-21.91744325 4.6145188 -21.91744325 4.6145188 -22.96625066 4.64218307 C-32.97615752 4.91694233 -42.57689215 5.63017881 -52.2902832 8.16113281 C-53.32668945 8.42667969 -54.3630957 8.69222656 -55.4309082 8.96582031 C-77.48453662 15.48953762 -96.04265339 30.85177945 -107.07421875 50.95458984 C-115.87721876 67.34904839 -119.62175069 85.5133153 -123.8381958 103.47668457 C-124.68814636 107.08476551 -125.55355809 110.68913095 -126.41723633 114.29394531 C-129.7769054 128.3444505 -133.05097493 142.41391499 -136.2792511 156.49519348 C-137.56409262 162.08102095 -138.89355317 167.64917378 -140.3059082 173.20410156 C-142.81503187 183.0996197 -145.02447081 193.0632586 -147.26416016 203.02258301 C-148.32120212 207.72274554 -149.38239204 212.4219686 -150.44335938 217.12124634 C-150.97496981 219.47599908 -151.50638388 221.83079617 -152.03759766 224.18563843 C-154.11286094 233.38375293 -156.19988422 242.5791226 -158.30114746 251.77133179 C-158.61935568 253.16338354 -158.93732115 254.55549081 -159.25500488 255.94766235 C-160.60284263 261.85376408 -161.95560248 267.7584453 -163.35180664 273.65332031 C-163.53142944 274.41219543 -163.71105225 275.17107056 -163.89611816 275.95294189 C-164.24156395 277.40959396 -164.58823815 278.8659555 -164.93640137 280.32196045 C-169.90403806 301.25212651 -170.65009891 321.60541682 -159.8527832 340.84863281 C-158.69807252 342.64101954 -157.51409551 344.41519742 -156.2902832 346.16113281 C-155.85329102 346.81082031 -155.41629883 347.46050781 -154.96606445 348.12988281 C-145.5926447 360.51518219 -128.19878843 367.77851587 -113.2902832 370.16113281 C-94.08410608 371.86527348 -78.05593039 368.13695912 -62.8527832 355.78613281 C-56.6657944 350.01535962 -51.78659677 342.99171955 -46.79125977 336.19970703 C-45.4565917 334.38700724 -44.10786491 332.58630606 -42.7512207 330.79003906 C-39.66816988 326.65875096 -37.04632924 323.03999964 -35.2902832 318.16113281 C-34.6302832 318.16113281 -33.9702832 318.16113281 -33.2902832 318.16113281 C-31.68332816 316.06365972 -31.68332816 316.06365972 -29.9777832 313.28613281 C-26.49233026 307.92583334 -22.86060516 302.70894748 -19.1027832 297.53613281 C-18.55243408 296.77768066 -18.00208496 296.01922852 -17.43505859 295.23779297 C-16.29808445 293.67238667 -15.16046295 292.10745038 -14.0222168 290.54296875 C-11.14606212 286.58754656 -8.27990515 282.62491219 -5.4152832 278.66113281 C-4.86614258 277.9013916 -4.31700195 277.14165039 -3.7512207 276.35888672 C-0.46340863 271.80398081 2.78707051 267.22596414 5.99487305 262.61425781 C9.85224422 257.09619609 13.78479512 251.63123696 17.7097168 246.16113281 C18.23968262 245.42169434 18.76964844 244.68225586 19.31567383 243.92041016 C23.09371391 238.65268635 26.88993674 233.39867187 30.7097168 228.16113281 C31.41483398 227.19304687 32.11995117 226.22496094 32.84643555 225.22753906 C41.21545786 214.07511157 41.21545786 214.07511157 46.9050293 212.58691406 C51.05973536 212.2700297 53.92870046 212.8685666 57.2097168 215.47363281 C61.80377825 219.9715395 65.73111653 225.12407473 69.7097168 230.16113281 C72.72953441 233.97110995 75.69778589 237.34193812 79.7097168 240.16113281 C80.3697168 240.16113281 81.0297168 240.16113281 81.7097168 240.16113281 C81.7097168 240.82113281 81.7097168 241.48113281 81.7097168 242.16113281 C98.4365854 251.1926521 115.92754565 255.85055058 134.7800293 250.26269531 C156.1151306 242.24069722 167.38362909 227.92654134 180.01342773 209.83789062 C183.86877826 204.31857378 187.82788227 198.88380763 191.8347168 193.47363281 C197.08919263 186.37285493 202.28363131 179.23652428 207.38549805 172.02539062 C208.91297768 169.87497866 210.45204113 167.73305459 211.9909668 165.59082031 C213.10573205 164.03105448 214.2203178 162.47116034 215.3347168 160.91113281 C215.8685498 160.1710498 216.40238281 159.4309668 216.95239258 158.66845703 C217.4420752 157.98025879 217.93175781 157.29206055 218.4362793 156.58300781 C218.87536621 155.97038086 219.31445312 155.35775391 219.7668457 154.7265625 C220.88169975 153.18016813 220.88169975 153.18016813 220.7097168 151.16113281 C221.3697168 151.16113281 222.0297168 151.16113281 222.7097168 151.16113281 C225.02563702 147.93999124 225.02563702 147.93999124 225.7097168 144.16113281 C226.3697168 144.16113281 227.0297168 144.16113281 227.7097168 144.16113281 C229.27259713 142.01648495 229.27259713 142.01648495 230.7722168 139.34863281 C231.29944336 138.4553125 231.82666992 137.56199219 232.36987305 136.64160156 C235.88917058 130.12628397 235.61464523 122.49805642 233.7097168 115.47363281 C230.21992368 109.69366297 226.47579926 104.46873543 220.2722168 101.53613281 C212.43417986 100.71107629 204.28251338 101.77835532 197.80810547 106.56787109 C192.78798905 110.89404704 188.89862174 115.50908566 185.0847168 120.91113281 C183.87279222 122.59234951 182.66054284 124.27333212 181.44799805 125.95410156 C180.52688232 127.2406665 180.52688232 127.2406665 179.5871582 128.55322266 C177.11894977 131.98175353 174.60600044 135.37605611 172.09057617 138.77001953 C167.50229668 144.96123984 162.93612549 151.16177382 158.5534668 157.50097656 C155.92042213 161.29992448 153.25130433 165.07318326 150.5847168 168.84863281 C150.08117676 169.56229004 149.57763672 170.27594727 149.05883789 171.01123047 C148.5697998 171.70394043 148.08076172 172.39665039 147.5769043 173.11035156 C147.10091797 173.78630371 146.62493164 174.46225586 146.13452148 175.15869141 C145.17787464 176.50317691 144.20954458 177.83941916 143.23022461 179.16748047 C140.61137149 182.33059585 140.61137149 182.33059585 139.7097168 186.16113281 C139.0497168 186.16113281 138.3897168 186.16113281 137.7097168 186.16113281 C136.60693554 187.80934372 135.57805369 189.50723906 134.5847168 191.22363281 C130.87669791 197.23558813 126.60946293 202.86121744 119.7097168 205.16113281 C116.6472168 205.78613281 116.6472168 205.78613281 112.7097168 205.16113281 C106.82099671 201.04275579 102.25669891 195.86591854 98.1081543 190.05566406 C88.81971984 177.47217045 73.55058647 168.60456872 58.3347168 165.78613281 C41.54890444 163.67786691 26.53182235 167.33180106 13.1472168 177.53613281 C11.6495315 178.7214354 10.17372028 179.93447179 8.7097168 181.16113281 C8.10885254 181.64759277 7.50798828 182.13405273 6.88891602 182.63525391 C1.73700277 186.93407857 -2.16946255 191.57624434 -6.0402832 197.03613281 C-6.94025024 198.28124634 -6.94025024 198.28124634 -7.85839844 199.55151367 C-9.68070584 202.07994415 -11.48804943 204.61836484 -13.2902832 207.16113281 C-13.81702637 207.90282715 -14.34376953 208.64452148 -14.88647461 209.40869141 C-17.35890973 212.89492838 -19.81988848 216.38900419 -22.2746582 219.88769531 C-25.50953562 224.48788756 -28.80335255 229.04461551 -32.1027832 233.59863281 C-35.36262191 238.09869434 -38.61988662 242.59732736 -41.7902832 247.16113281 C-49.07081643 257.63711205 -56.64490841 267.91350548 -64.1574707 278.22363281 C-66.36753666 281.26753317 -68.56672015 284.31908921 -70.76489258 287.37158203 C-73.00614087 290.48081672 -75.25363697 293.58550354 -77.50219727 296.68945312 C-78.72512089 298.37990626 -79.94571663 300.07204524 -81.16430664 301.765625 C-83.03300329 304.36066338 -84.91073416 306.94894776 -86.7902832 309.53613281 C-87.36536621 310.33857422 -87.94044922 311.14101563 -88.53295898 311.96777344 C-95.58226423 321.62616994 -95.58226423 321.62616994 -101.1574707 322.72753906 C-107.00336937 322.71994699 -111.43602773 322.60430043 -115.9543457 318.62597656 C-120.54256781 313.59503127 -120.55989192 309.01622729 -120.49755859 302.51147461 C-120.15452677 296.96680361 -118.88510074 291.72467024 -117.5402832 286.34863281 C-117.28762695 285.28837891 -117.0349707 284.228125 -116.7746582 283.13574219 C-115.41157742 277.47554923 -113.93921691 271.85201207 -112.4074707 266.23535156 C-109.97341978 257.16862799 -107.9251154 248.01945803 -105.85983276 238.86291504 C-102.13030601 222.34149991 -98.28929803 205.85405281 -94.2277832 189.41113281 C-90.69758567 175.11130135 -87.34230627 160.77959924 -84.1027832 146.41113281 C-81.26497113 133.83450605 -78.41898838 121.26184522 -75.4152832 108.72363281 C-75.15336182 107.61858398 -74.89144043 106.51353516 -74.62158203 105.375 C-66.11360445 70.18576451 -66.11360445 70.18576451 -51.4777832 60.91113281 C-40.5016725 54.74219765 -28.76678962 52.85206319 -16.30461121 52.9004364 C-15.2435157 52.89661085 -14.18242019 52.89278531 -13.08917028 52.88884383 C-9.55744235 52.87858046 -6.02587902 52.88249332 -2.49414062 52.88647461 C0.04778696 52.88212444 2.58971324 52.87694027 5.13163757 52.87098694 C11.30558885 52.85900494 17.47948012 52.85644164 23.65344075 52.8587872 C28.67550215 52.8605748 33.69755039 52.85881128 38.71961021 52.85456276 C39.79433865 52.85366998 39.79433865 52.85366998 40.89077878 52.85275916 C42.34662893 52.85154732 43.80247908 52.85033319 45.25832924 52.84911678 C58.89314611 52.83825532 72.52793821 52.84039702 86.16275647 52.84650163 C98.6143661 52.85166861 111.06589746 52.84041863 123.51749162 52.82140341 C136.32656893 52.8019934 149.13560927 52.7937746 161.94470137 52.79752666 C169.12647338 52.79943403 176.30817879 52.79699664 183.48993874 52.78281212 C190.24597532 52.76960264 197.00183045 52.77220114 203.75787544 52.78522301 C206.23092451 52.78758305 208.70398467 52.78487474 211.17702103 52.77659988 C229.47333677 52.71981597 246.37124775 52.73406282 260.8972168 65.53613281 C264.33741434 69.2377006 266.6670168 73.32064054 268.9597168 77.78613281 C269.27706787 78.40020996 269.59441895 79.01428711 269.92138672 79.64697266 C275.4347834 91.09107437 277.71919007 104.08620843 280.50268555 116.41503906 C280.85295168 117.95239641 281.20362379 119.48966131 281.55467224 121.02684021 C282.29205306 124.25810072 283.02741621 127.48980994 283.76104736 130.72192383 C285.48704132 138.3242849 287.22497553 145.92391082 288.96480751 153.52311516 C289.50634054 155.89103752 290.04594487 158.25939245 290.58525085 160.62782288 C293.39362417 172.93296292 296.36283084 185.19643736 299.39509583 197.44816589 C301.87682262 207.48363711 304.18650718 217.55684044 306.4753418 227.63769531 C306.64326107 228.37727226 306.81118034 229.11684921 306.98418808 229.87883759 C308.69071454 237.39930724 310.3910281 244.92116359 312.08332062 252.44484901 C312.72014362 255.2746192 313.3587135 258.10399385 313.99745941 260.93333054 C314.43773364 262.88730474 314.87519429 264.84191225 315.31256104 266.79653931 C316.93249546 273.97468212 318.71687088 281.07787098 320.7097168 288.16113281 C325.67574249 306.81949273 325.67574249 306.81949273 322.2097168 314.47363281 C318.11174984 318.87894729 313.79264322 322.37874801 307.5847168 322.72363281 C299.62852985 321.56870245 295.53164057 316.08109351 290.7097168 310.16113281 C288.37461072 306.97865013 286.18759705 303.71086329 284.0222168 300.41113281 C283.42062744 299.50081299 282.81903809 298.59049316 282.19921875 297.65258789 C274.39345296 285.74943656 267.10946628 273.54665059 260.2097168 261.09863281 C248.16837536 237.09395146 248.16837536 237.09395146 228.9597168 219.91113281 C220.52412265 217.96445724 213.44933664 219.29703901 205.7097168 223.16113281 C199.09330712 227.49718398 194.3539374 233.56651206 192.1081543 241.20800781 C190.19043223 250.6086062 193.80542388 256.18743252 198.86401367 263.92724609 C204.5587185 272.50753792 210.6104153 280.84014742 216.66333008 289.16943359 C220.72515547 294.76681259 224.69847435 300.42107675 228.6472168 306.09863281 C254.12816486 346.18078838 254.12816486 346.18078838 293.4050293 369.76269531 C313.39449696 372.17277297 331.43539009 369.32041752 347.6394043 356.91894531 C350.10535469 354.75280652 352.42306476 352.51467047 354.7097168 350.16113281 C355.34264648 349.54882812 355.97557617 348.93652344 356.62768555 348.30566406 C367.83938427 336.69796716 372.31558624 320.59080179 372.33837891 304.8137207 C371.91239145 292.01668601 368.30929949 279.54303511 365.21289062 267.17944336 C363.92817086 262.0262273 362.69056688 256.86132376 361.43988037 251.69976807 C360.95502745 249.70433361 360.46671037 247.70977178 359.9777832 245.71533203 C356.39694927 231.06983546 353.06687359 216.36675322 349.74194336 201.66137695 C347.52692215 191.89490996 345.23203114 182.15810241 342.7722168 172.45019531 C339.68847209 160.26565521 336.91155467 148.01850773 334.15744019 135.75592041 C328.41186962 110.20911463 328.41186962 110.20911463 322.1472168 84.78613281 C321.84960449 83.62073975 321.55199219 82.45534668 321.24536133 81.25463867 C318.72281419 71.65667208 315.70733749 62.34240883 310.9597168 53.59863281 C310.61682617 52.96368896 310.27393555 52.32874512 309.9206543 51.67456055 C305.02167771 42.85215631 298.45673019 34.67153374 290.7097168 28.16113281 C290.0497168 28.16113281 289.3897168 28.16113281 288.7097168 28.16113281 C288.7097168 27.50113281 288.7097168 26.84113281 288.7097168 26.16113281 C286.67709358 24.63742725 284.66656353 23.26212724 282.5222168 21.91113281 C281.89089844 21.51071777 281.25958008 21.11030273 280.60913086 20.69775391 C255.70080979 5.2247794 228.0546257 4.00115452 199.50805664 4.03173828 C197.37428762 4.03038114 195.24051884 4.02859945 193.10675049 4.02642822 C187.3326292 4.02188503 181.55852587 4.02363225 175.78440428 4.02680731 C169.70112786 4.02935425 163.6178529 4.02698623 157.53457642 4.02542114 C147.29754361 4.02360319 137.06051803 4.02599276 126.82348633 4.03076172 C115.07689654 4.0361716 103.33032421 4.03446417 91.58373487 4.02893531 C81.43782097 4.02435496 71.29191225 4.02377836 61.14599764 4.02637398 C55.11441236 4.02791411 49.08283518 4.02819474 43.05125046 4.02483749 C11.07752495 4.00140008 11.07752495 4.00140008 -20.8894043 4.58740234 Z " fill="#242226" transform="translate(205.290283203125,119.8388671875)"/>
<path d="M0 0 C-1.61010527 4.07376031 -4.53822271 6.76507069 -7.625 9.75 C-8.140625 10.25660156 -8.65625 10.76320312 -9.1875 11.28515625 C-10.45383339 12.52803902 -11.7263144 13.76465276 -13 15 C-13 10.69406342 -10.4269306 8.78604885 -7.625 5.8125 C-7.11710937 5.25369141 -6.60921875 4.69488281 -6.0859375 4.11914062 C-2.26353594 0 -2.26353594 0 0 0 Z " fill="#666666" transform="translate(116,143)"/>
</svg>
